<svg width="13" height="18" viewBox="0 0 13 18" fill="none" xmlns="http://www.w3.org/2000/svg">
<path fill-rule="evenodd" clip-rule="evenodd" d="M6.5 0L5.85929 0.642472L5.85464 0.64639L5.83979 0.661081C5.75937 0.742741 5.68012 0.825671 5.60207 0.909843C4.6534 1.92234 3.77342 3.00396 2.96864 4.14669C1.56186 6.14658 0 8.94173 0 11.638C0 15.2313 2.98907 18 6.5 18C10.0109 18 13 15.2313 13 11.6389C13 8.94271 11.4372 6.14756 10.0323 4.14669C9.17455 2.92975 8.23158 1.7823 7.21129 0.713967L7.16021 0.661081L7.14536 0.64639L7.14164 0.642472L6.5 0ZM4.73386 11.7496C4.65577 11.5052 4.48944 11.3032 4.27096 11.1873C4.05249 11.0715 3.79951 11.0512 3.56696 11.1309C3.3344 11.2106 3.14103 11.3838 3.02884 11.613C2.91665 11.8421 2.89468 12.1087 2.96771 12.3549C3.21008 13.1416 3.68237 13.8273 4.31691 14.3136C4.95144 14.7999 5.71565 15.0618 6.5 15.0619C6.74627 15.0619 6.98246 14.9587 7.1566 14.775C7.33074 14.5913 7.42857 14.3422 7.42857 14.0825C7.42857 13.8227 7.33074 13.5736 7.1566 13.39C6.98246 13.2063 6.74627 13.1031 6.5 13.1031C6.10782 13.1031 5.72572 12.9721 5.40845 12.729C5.09119 12.4858 4.85504 12.143 4.73386 11.7496Z" fill="#F78888"/>
</svg>
