<svg width="17" height="19" viewBox="0 0 17 19" fill="none" xmlns="http://www.w3.org/2000/svg">
<g clip-path="url(#clip0_884_4746)">
<path d="M6.18929 0.689755C6.46786 0.433115 6.9 0.43663 7.17857 0.693271C8.16429 1.60382 9.08929 2.58468 9.95357 3.6464C10.3464 3.14015 10.7929 2.58819 11.275 2.13819C11.5571 1.87804 11.9929 1.87804 12.275 2.14171C13.5107 3.30186 14.5571 4.83468 15.2929 6.29015C16.0179 7.72452 16.5 9.19054 16.5 10.2241C16.5 14.7101 12.9357 18.4999 8.5 18.4999C4.01429 18.4999 0.5 14.7066 0.5 10.2206C0.5 8.87062 1.13571 7.22179 2.12143 5.59054C3.11786 3.93468 4.525 2.20851 6.18929 0.689755ZM8.56071 15.1249C9.46429 15.1249 10.2643 14.8788 11.0179 14.3866C12.5214 13.353 12.925 11.2858 12.0214 9.66163C11.8607 9.34522 11.45 9.32413 11.2179 9.59132L10.3179 10.6214C10.0821 10.8886 9.65714 10.8816 9.43571 10.6038C8.84643 9.86554 7.79286 8.54718 7.19286 7.79835C6.96786 7.5171 6.53929 7.51358 6.31071 7.79483C5.10357 9.28897 4.49643 10.2312 4.49643 11.2894C4.5 13.6976 6.30714 15.1249 8.56071 15.1249Z" fill="#E76969"/>
</g>
<defs>
<clipPath id="clip0_884_4746">
<rect width="16" height="18" fill="white" transform="translate(0.5 0.5)"/>
</clipPath>
</defs>
</svg>
