<svg width="18" height="15" viewBox="0 0 18 15" fill="none" xmlns="http://www.w3.org/2000/svg">
<path d="M5.9918 2.14286H12.0082C12.4598 2.14286 12.8615 2.4308 13.0109 2.85938L13.8775 5.35714H4.12246L4.98906 2.85938C5.13848 2.4308 5.54023 2.14286 5.9918 2.14286ZM2.98359 2.1529L1.81484 5.51786C1.04453 5.83929 0.5 6.60603 0.5 7.5V10.7143C0.5 11.5078 0.92832 12.2009 1.5625 12.5692V13.9286C1.5625 14.5212 2.0373 15 2.625 15H3.6875C4.2752 15 4.75 14.5212 4.75 13.9286V12.8571H13.25V13.9286C13.25 14.5212 13.7248 15 14.3125 15H15.375C15.9627 15 16.4375 14.5212 16.4375 13.9286V12.5692C17.0717 12.1975 17.5 11.5078 17.5 10.7143V7.5C17.5 6.60603 16.9555 5.83929 16.1852 5.51786L15.0164 2.1529C14.5682 0.863839 13.3629 0 12.0082 0H5.9918C4.63711 0 3.43184 0.863839 2.98359 2.1529ZM7.40625 8.57143H10.5938C10.8859 8.57143 11.125 8.8125 11.125 9.10714V10.1786C11.125 10.4732 10.8859 10.7143 10.5938 10.7143H7.40625C7.11406 10.7143 6.875 10.4732 6.875 10.1786V9.10714C6.875 8.8125 7.11406 8.57143 7.40625 8.57143ZM2.09375 8.30357C2.09375 7.85826 2.44902 7.5 2.89062 7.5H3.95312C4.39473 7.5 4.75 7.85826 4.75 8.30357C4.75 8.74888 4.39473 9.10714 3.95312 9.10714H2.89062C2.44902 9.10714 2.09375 8.74888 2.09375 8.30357ZM14.0469 7.5H15.1094C15.551 7.5 15.9062 7.85826 15.9062 8.30357C15.9062 8.74888 15.551 9.10714 15.1094 9.10714H14.0469C13.6053 9.10714 13.25 8.74888 13.25 8.30357C13.25 7.85826 13.6053 7.5 14.0469 7.5Z" fill="#006EEB"/>
</svg>
