<svg width="17" height="17" viewBox="0 0 17 17" fill="none" xmlns="http://www.w3.org/2000/svg">
<path d="M8.5021 0.498047C4.08353 0.498047 0.5 4.08158 0.5 8.50014C0.5 12.9187 4.08353 16.5022 8.5021 16.5022C12.9207 16.5022 16.5 12.9187 16.5 8.50014C16.5 4.08158 12.9165 0.498047 8.5021 0.498047ZM4.34369 6.30135C4.70876 5.80201 5.40532 5.69291 5.90467 6.05797C6.40401 6.42304 6.51311 7.1196 6.14805 7.61895C5.78298 8.11829 5.08641 8.22739 4.58707 7.86233C4.08773 7.49726 3.97863 6.8007 4.34369 6.30135ZM11.8506 12.6753C12.0814 12.6753 12.2661 12.8684 12.2619 13.1033C12.2619 13.3341 12.0688 13.5146 11.8422 13.5146H11.8339C10.9988 13.502 10.3106 12.776 10.2057 11.8529C8.53147 10.7996 7.00407 11.5592 6.53829 11.8445C6.43339 12.7718 5.74521 13.502 4.90598 13.5146H4.89759C4.67099 13.5146 4.48217 13.3299 4.47797 13.1033C4.47797 12.8726 4.65841 12.6795 4.88919 12.6753C5.34238 12.6669 5.71584 12.1886 5.71584 11.6053C5.71584 11.022 5.34658 10.5395 4.88919 10.5353C4.65841 10.5353 4.47377 10.3423 4.47797 10.1073C4.47797 9.87649 4.67099 9.69605 4.89759 9.69605H4.90598C5.61513 9.70864 6.21518 10.229 6.44597 10.9465C7.21807 10.5772 8.69093 10.1199 10.2897 10.9381C10.5288 10.2248 11.1247 9.70864 11.8297 9.69605H11.8381C12.0646 9.69605 12.2535 9.88069 12.2577 10.1073C12.2577 10.3381 12.0772 10.5311 11.8464 10.5353C11.3933 10.5437 11.0198 11.022 11.0198 11.6053C11.0198 12.1886 11.3891 12.6711 11.8464 12.6753H11.8506ZM12.5472 7.61895C12.1821 8.11829 11.4856 8.22739 10.9862 7.86233C10.4869 7.49726 10.382 6.8007 10.7429 6.30135C11.1079 5.80201 11.8045 5.69291 12.3038 6.05797C12.8032 6.42304 12.9081 7.1196 12.5472 7.61895Z" fill="#79B88A"/>
</svg>
