<svg width="13" height="19" viewBox="0 0 13 19" fill="none" xmlns="http://www.w3.org/2000/svg">
<path fill-rule="evenodd" clip-rule="evenodd" d="M6.5 0.5L5.85929 1.14247L5.85464 1.14639L5.83979 1.16108C5.75937 1.24274 5.68012 1.32567 5.60207 1.40984C4.6534 2.42234 3.77342 3.50396 2.96864 4.64669C1.56186 6.64658 0 9.44173 0 12.138C0 15.7313 2.98907 18.5 6.5 18.5C10.0109 18.5 13 15.7313 13 12.1389C13 9.44271 11.4372 6.64756 10.0323 4.64669C9.17455 3.42975 8.23158 2.2823 7.21129 1.21397L7.16021 1.16108L7.14536 1.14639L7.14164 1.14247L6.5 0.5ZM4.73386 12.2496C4.65577 12.0052 4.48944 11.8032 4.27096 11.6873C4.05249 11.5715 3.79951 11.5512 3.56696 11.6309C3.3344 11.7106 3.14103 11.8838 3.02884 12.113C2.91665 12.3421 2.89468 12.6087 2.96771 12.8549C3.21008 13.6416 3.68237 14.3273 4.31691 14.8136C4.95144 15.2999 5.71565 15.5618 6.5 15.5619C6.74627 15.5619 6.98246 15.4587 7.1566 15.275C7.33074 15.0913 7.42857 14.8422 7.42857 14.5825C7.42857 14.3227 7.33074 14.0736 7.1566 13.89C6.98246 13.7063 6.74627 13.6031 6.5 13.6031C6.10782 13.6031 5.72572 13.4721 5.40845 13.229C5.09119 12.9858 4.85504 12.643 4.73386 12.2496Z" fill="#F78888"/>
</svg>
