<svg width="19" height="19" viewBox="0 0 19 19" fill="none" xmlns="http://www.w3.org/2000/svg">
<path d="M17.0321 3.34101C16.2191 2.79305 15.268 2.60518 14.4484 2.75861C14.3266 1.96955 13.8264 1.18049 13.0101 0.632537C11.585 -0.325604 9.74518 -0.18157 8.90262 0.955048C8.14233 1.97581 8.44842 3.44747 9.54771 4.43379L4.48572 11.2378C3.16592 10.6335 1.66181 10.8684 0.921268 11.8641C0.0754097 13.0007 0.546062 14.6978 1.97119 15.6591C2.78413 16.207 3.73531 16.3949 4.55484 16.2415C4.67662 17.0305 5.17689 17.8196 5.99313 18.3675C7.41825 19.3257 9.25808 19.1816 10.1006 18.045C10.8412 17.0493 10.5713 15.6215 9.53454 14.6383L12.8587 10.1701L12.7073 9.9885L10.5746 12.2116L8.9849 10.4112L5.67387 11.4163L8.84996 8.71724L10.2553 10.4112L12.4802 8.50432L13.3985 9.44055L14.6163 7.80294C15.9097 8.34776 17.3579 8.10666 18.0787 7.136C18.9246 5.99938 18.4539 4.30228 17.0288 3.34101H17.0321Z" fill="#96A5B1"/>
</svg>
