<svg width="18" height="13" viewBox="0 0 18 13" fill="none" xmlns="http://www.w3.org/2000/svg">
<path d="M10.6838 7.4671V10.3694C10.6838 10.8075 10.8377 11.2333 11.1216 11.5803C11.4055 11.9272 11.8034 12.1759 12.2531 12.2873L14.8562 12.9322C16.4861 13.3367 17.9342 11.8614 17.3794 10.3623L14.7384 3.22829C14.5762 2.78994 14.2545 2.41985 13.8304 2.18362C13.4062 1.94739 12.907 1.86028 12.4212 1.93773C11.9354 2.01519 11.4944 2.25221 11.1764 2.60677C10.8584 2.96133 10.6839 3.41053 10.6838 3.87474V5.22317L9.84192 4.42997V0H8.15813V4.43077L7.31624 5.22396V3.87553C7.31639 3.41125 7.14203 2.96193 6.82407 2.60722C6.50611 2.25252 6.0651 2.01536 5.57924 1.9378C5.09338 1.86024 4.59407 1.94729 4.16984 2.18352C3.74561 2.41974 3.42388 2.78988 3.26169 3.22829L0.620674 10.3615C0.0658678 11.8606 1.51308 13.3359 3.14382 12.9322L5.74695 12.2873C6.19666 12.1759 6.59453 11.9272 6.87844 11.5803C7.16234 11.2333 7.31629 10.8075 7.31624 10.3694V7.4671L9.00002 5.88072L10.6838 7.4671Z" fill="#2459E0"/>
</svg>
