<svg width="15" height="15" viewBox="0 0 15 15" fill="none" xmlns="http://www.w3.org/2000/svg">
<path d="M6.75 0.401899C6.29389 0.138582 5.7765 -2.95557e-05 5.24983 4.72708e-09C4.72316 2.95652e-05 4.20579 0.138699 3.74971 0.402067C3.29363 0.665436 2.91493 1.04422 2.65167 1.50034C2.38841 1.95647 2.24988 2.47385 2.25 3.00049V4.3309C1.61175 4.58739 1.08825 4.98636 0.70575 5.51208C0.219 6.18179 0 7.00149 0 7.87519C0 9.04586 0.59625 10.077 1.5 10.6815V11.625C1.49995 12.2361 1.66588 12.8358 1.98006 13.36C2.29424 13.8842 2.74489 14.3133 3.2839 14.6014C3.8229 14.8896 4.43004 15.0259 5.04049 14.9959C5.65095 14.966 6.24181 14.7708 6.75 14.4313V11.625C6.75 10.6253 6.5025 9.9863 6.105 9.55508C5.69775 9.11486 5.037 8.78713 4.002 8.61464L4.248 7.13573C5.2245 7.29772 6.0795 7.60295 6.75 8.12042V0.401899ZM8.25 0.401899V8.12042C8.9205 7.60295 9.7755 7.29772 10.752 7.13573L10.998 8.61464C9.963 8.78713 9.30225 9.11486 8.895 9.55583C8.4975 9.9863 8.25 10.6253 8.25 11.625V14.4313C8.75819 14.7708 9.34905 14.966 9.95951 14.9959C10.57 15.0259 11.1771 14.8896 11.7161 14.6014C12.2551 14.3133 12.7058 13.8842 13.0199 13.36C13.3341 12.8358 13.5 12.2361 13.5 11.625V10.6815C14.4038 10.077 15 9.04661 15 7.87519C15 7.00149 14.781 6.18179 14.2943 5.51283C13.9117 4.98636 13.3883 4.58739 12.75 4.3309V3.00049C12.7501 2.47385 12.6116 1.95647 12.3483 1.50034C12.0851 1.04422 11.7064 0.665436 11.2503 0.402067C10.7942 0.138699 10.2768 2.95652e-05 9.75017 4.72708e-09C9.2235 -2.95557e-05 8.70611 0.138582 8.25 0.401899Z" fill="#C99AE8"/>
</svg>
