<svg width="18" height="19" viewBox="0 0 18 19" fill="none" xmlns="http://www.w3.org/2000/svg">
<path fill-rule="evenodd" clip-rule="evenodd" d="M9.5815 1.94422C10.5064 1.01942 11.7608 0.499923 13.0687 0.5C14.3767 0.500077 15.631 1.01973 16.5558 1.94463C17.4806 2.86953 18.0001 4.12392 18 5.43185C17.9999 6.73979 17.4803 7.99412 16.5554 8.91891L8.4185 17.0558C7.4936 17.9806 6.23921 18.5001 4.93127 18.5C3.62334 18.4999 2.36901 17.9803 1.44422 17.0554C0.519423 16.1305 -7.70601e-05 14.8761 8.57372e-09 13.5681C7.70772e-05 12.2602 0.519725 11.0059 1.44463 10.0811L9.5815 1.94422ZM15.3924 7.75592L11.9058 11.2433L7.25633 6.59374L10.7437 3.10721C11.0477 2.79629 11.4103 2.54876 11.8106 2.37896C12.2109 2.20915 12.6409 2.12045 13.0758 2.11797C13.5106 2.1155 13.9416 2.19932 14.3438 2.36456C14.746 2.5298 15.1114 2.77319 15.4189 3.08064C15.7264 3.38809 15.9699 3.75348 16.1352 4.15566C16.3005 4.55784 16.3844 4.98883 16.382 5.42365C16.3796 5.85848 16.291 6.28851 16.1213 6.68885C15.9515 7.08919 15.7032 7.45187 15.3924 7.75592Z" fill="#BAD561"/>
</svg>
