<svg width="11" height="17" viewBox="0 0 11 17" fill="none" xmlns="http://www.w3.org/2000/svg">
<path fill-rule="evenodd" clip-rule="evenodd" d="M6.92851 0.773085C6.92859 0.603222 6.87693 0.438064 6.78152 0.30316C6.6861 0.168255 6.55226 0.0711219 6.40069 0.0267855C6.24911 -0.0175509 6.08826 -0.00661954 5.943 0.0578887C5.79775 0.122397 5.6762 0.236887 5.59714 0.383648L0.59735 9.65595C0.53401 9.77337 0.500431 9.9068 0.500004 10.0428C0.499577 10.1787 0.532318 10.3124 0.59492 10.4303C0.657523 10.5482 0.74777 10.6461 0.85655 10.7142C0.96533 10.7823 1.08879 10.8181 1.21447 10.8181H4.07149V16.2269C4.07141 16.3968 4.12307 16.5619 4.21848 16.6968C4.3139 16.8317 4.44774 16.9289 4.59931 16.9732C4.75089 17.0176 4.91174 17.0066 5.057 16.9421C5.20225 16.8776 5.32381 16.7631 5.40286 16.6164L10.4027 7.34405C10.466 7.22663 10.4996 7.0932 10.5 6.95724C10.5004 6.82128 10.4677 6.68761 10.4051 6.56972C10.3425 6.45183 10.2522 6.3539 10.1434 6.28581C10.0347 6.21772 9.91121 6.18188 9.78553 6.18193H6.92851V0.773085Z" fill="#F2C613"/>
</svg>
