<svg width="21" height="23" viewBox="0 0 21 23" fill="none" xmlns="http://www.w3.org/2000/svg">
<g clip-path="url(#clip0_745_4827)">
<path d="M10.5001 14.0312C10.5001 14.0312 -0.0702429 13.7203 0.000105448 19.5532C0.000105448 23.4713 3.02107 22.9792 3.02107 22.9792H17.9812C17.9812 22.9792 21.0021 23.4713 21.0001 19.5532C21.0705 13.7203 10.5081 14.0312 10.5001 14.0312Z" fill="#374957"/>
<path d="M5.53148 7.24316C5.26416 7.24316 5.04909 7.47994 5.07924 7.75171C5.38074 10.5456 7.69218 12.7178 10.5001 12.7178C13.308 12.7178 15.6194 10.5456 15.9209 7.75171C15.9511 7.47994 15.736 7.24316 15.4687 7.24316H5.53148Z" fill="#374957"/>
<path d="M16.7288 5.09578H16.2464C15.8384 2.21332 13.4204 0 10.4939 0C7.56744 0 5.14947 2.21332 4.74145 5.09578H4.27112C4.02993 5.09578 3.83496 5.2955 3.83496 5.54257V6.20141C3.83496 6.44848 4.02993 6.6482 4.27112 6.6482H16.7288C16.97 6.6482 17.165 6.44848 17.165 6.20141V5.54257C17.165 5.2955 16.97 5.09578 16.7288 5.09578Z" fill="#374957"/>
<path d="M11.8567 2.68228H11.2839C11.2015 2.68228 11.1331 2.61434 11.1331 2.52787V1.93078C11.1331 1.84637 11.0668 1.77637 10.9824 1.77637H10.0337C9.95129 1.77637 9.88295 1.84431 9.88295 1.93078V2.52787C9.88295 2.61228 9.81663 2.68228 9.73221 2.68228H9.13927C9.05686 2.68228 8.98853 2.75023 8.98853 2.8367V3.8085C8.98853 3.89292 9.05485 3.96292 9.13927 3.96292H9.73221C9.81462 3.96292 9.88295 4.03087 9.88295 4.11734V4.71442C9.88295 4.79884 9.94928 4.86884 10.0337 4.86884H10.9824C11.0648 4.86884 11.1331 4.80089 11.1331 4.71442V4.11734C11.1331 4.03292 11.1995 3.96292 11.2839 3.96292H11.8567C11.9391 3.96292 12.0075 3.89498 12.0075 3.8085V2.8367C12.0075 2.75229 11.9411 2.68228 11.8567 2.68228Z" fill="#E9E9EB"/>
</g>
<defs>
<clipPath id="clip0_745_4827">
<rect width="21" height="23" fill="white"/>
</clipPath>
</defs>
</svg>
