<svg width="14" height="18" viewBox="0 0 14 18" fill="none" xmlns="http://www.w3.org/2000/svg">
<path d="M8.50021 1.56245C8.50021 0.974782 8.05332 0.5 7.50019 0.5C6.94705 0.5 6.50016 0.974782 6.50016 1.56245V1.74174C6.50016 3.23581 5.76264 4.61699 4.55949 5.38727L4.41573 5.48023C2.60631 6.63233 1.50004 8.7041 1.50004 10.9452V13.2494C1.50004 13.8371 1.94692 14.3118 2.50006 14.3118C3.0532 14.3118 3.50009 13.8371 3.50009 13.2494V10.9452C3.50009 10.3907 3.60321 9.84956 3.79384 9.35153L9.72524 17.1074C10.0721 17.5623 10.7034 17.632 11.1315 17.2635C11.5597 16.8949 11.6253 16.2243 11.2784 15.7694L7.72519 11.1245H11.0003L12.2003 12.8244C12.5316 13.2926 13.1597 13.3888 13.6003 13.0369C14.041 12.685 14.1316 12.0176 13.8003 11.5495L12.4503 9.63707C12.1659 9.23533 11.7222 8.9996 11.2503 8.9996H8.46896L6.50329 6.49288C7.76269 5.29762 8.50021 3.57446 8.50021 1.74174V1.56245ZM1.75004 5.28102C1.97986 5.28102 2.20743 5.23293 2.41976 5.13949C2.63208 5.04606 2.825 4.9091 2.98751 4.73645C3.15002 4.5638 3.27892 4.35883 3.36687 4.13326C3.45482 3.90768 3.50009 3.6659 3.50009 3.42174C3.50009 3.17757 3.45482 2.9358 3.36687 2.71022C3.27892 2.48464 3.15002 2.27967 2.98751 2.10702C2.825 1.93437 2.63208 1.79742 2.41976 1.70398C2.20743 1.61054 1.97986 1.56245 1.75004 1.56245C1.52022 1.56245 1.29266 1.61054 1.08033 1.70398C0.868006 1.79742 0.675082 1.93437 0.512576 2.10702C0.350069 2.27967 0.221162 2.48464 0.133214 2.71022C0.0452662 2.9358 0 3.17757 0 3.42174C0 3.6659 0.0452662 3.90768 0.133214 4.13326C0.221162 4.35883 0.350069 4.5638 0.512576 4.73645C0.675082 4.9091 0.868006 5.04606 1.08033 5.13949C1.29266 5.23293 1.52022 5.28102 1.75004 5.28102Z" fill="#C99AE8"/>
</svg>
