<svg width="31" height="18" viewBox="0 0 31 18" fill="none" xmlns="http://www.w3.org/2000/svg">
<path d="M20.7308 2.41452C20.4193 1.96607 20.0495 1.61034 19.6425 1.36763C19.2355 1.12492 18.7992 1 18.3586 1C17.918 1 17.4818 1.12492 17.0747 1.36763C16.6677 1.61034 16.2979 1.96607 15.9864 2.41452L15.34 3.34476L14.6936 2.41452C14.0645 1.50912 13.2112 1.00047 12.3214 1.00047C11.4317 1.00047 10.5784 1.50912 9.94921 2.41452C9.32006 3.31992 8.96661 4.5479 8.96661 5.82833C8.96661 7.10875 9.32006 8.33674 9.94921 9.24214L10.5956 10.1724L15.34 17L20.0844 10.1724L20.7308 9.24214C21.0424 8.79391 21.2896 8.26171 21.4583 7.67596C21.6269 7.0902 21.7137 6.46237 21.7137 5.82833C21.7137 5.19428 21.6269 4.56645 21.4583 3.9807C21.2896 3.39494 21.0424 2.86275 20.7308 2.41452Z" stroke="#6E8BA1" stroke-width="2" stroke-linecap="round" stroke-linejoin="round"/>
<path d="M30 5.88H27.3077L26.5385 12L24.2308 3L23.0769 8.76H21" stroke="#6E8BA1" stroke-width="1.5" stroke-linecap="round" stroke-linejoin="round"/>
<path d="M1 10.8001H3.72222L4.5 4.00012L8.5 14L10 7.60012L12 7.60012L15 7.60012" stroke="#6E8BA1" stroke-width="1.5" stroke-linecap="round" stroke-linejoin="round"/>
</svg>
