<svg width="26" height="23" viewBox="0 0 26 23" fill="none" xmlns="http://www.w3.org/2000/svg">
<path d="M5.77778 2.875C5.77778 1.28926 7.07326 0 8.66667 0H17.3333C18.9267 0 20.2222 1.28926 20.2222 2.875V5.75H23.1111C24.7045 5.75 26 7.03926 26 8.625V20.125C26 21.7107 24.7045 23 23.1111 23H2.88889C1.29549 23 0 21.7107 0 20.125V8.625C0 7.03926 1.29549 5.75 2.88889 5.75H5.77778V2.875ZM12.2778 15.8125C11.4788 15.8125 10.8333 16.4549 10.8333 17.25V20.8438H15.1667V17.25C15.1667 16.4549 14.5212 15.8125 13.7222 15.8125H12.2778ZM5.77778 16.5312V15.0938C5.77778 14.6984 5.45278 14.375 5.05556 14.375H3.61111C3.21389 14.375 2.88889 14.6984 2.88889 15.0938V16.5312C2.88889 16.9266 3.21389 17.25 3.61111 17.25H5.05556C5.45278 17.25 5.77778 16.9266 5.77778 16.5312ZM5.05556 11.5C5.45278 11.5 5.77778 11.1766 5.77778 10.7812V9.34375C5.77778 8.94844 5.45278 8.625 5.05556 8.625H3.61111C3.21389 8.625 2.88889 8.94844 2.88889 9.34375V10.7812C2.88889 11.1766 3.21389 11.5 3.61111 11.5H5.05556ZM23.1111 16.5312V15.0938C23.1111 14.6984 22.7861 14.375 22.3889 14.375H20.9444C20.5472 14.375 20.2222 14.6984 20.2222 15.0938V16.5312C20.2222 16.9266 20.5472 17.25 20.9444 17.25H22.3889C22.7861 17.25 23.1111 16.9266 23.1111 16.5312ZM22.3889 11.5C22.7861 11.5 23.1111 11.1766 23.1111 10.7812V9.34375C23.1111 8.94844 22.7861 8.625 22.3889 8.625H20.9444C20.5472 8.625 20.2222 8.94844 20.2222 9.34375V10.7812C20.2222 11.1766 20.5472 11.5 20.9444 11.5H22.3889ZM11.9167 4.67188V6.10938H10.4722C10.075 6.10938 9.75 6.43281 9.75 6.82812V7.54688C9.75 7.94219 10.075 8.26562 10.4722 8.26562H11.9167V9.70312C11.9167 10.0984 12.2417 10.4219 12.6389 10.4219H13.3611C13.7583 10.4219 14.0833 10.0984 14.0833 9.70312V8.26562H15.5278C15.925 8.26562 16.25 7.94219 16.25 7.54688V6.82812C16.25 6.43281 15.925 6.10938 15.5278 6.10938H14.0833V4.67188C14.0833 4.27656 13.7583 3.95312 13.3611 3.95312H12.6389C12.2417 3.95312 11.9167 4.27656 11.9167 4.67188Z" fill="#374957"/>
</svg>
