<svg width="20" height="23" viewBox="0 0 20 23" fill="none" xmlns="http://www.w3.org/2000/svg">
<path d="M19.1951 15.6777L17.6678 14.7955C17.9442 14.5108 18.2611 14.2686 18.6085 14.0767C18.8355 13.9487 19.0028 13.7362 19.0739 13.4854C19.145 13.2347 19.1142 12.966 18.9881 12.7378C18.862 12.5097 18.6509 12.3406 18.4008 12.2674C18.1507 12.1941 17.8817 12.2227 17.6525 12.3468C16.9894 12.7138 16.4018 13.2031 15.9208 13.7888L11.9627 11.5L15.9199 9.21527C16.4008 9.80105 16.9884 10.2903 17.6516 10.6573C17.7653 10.7214 17.8905 10.7623 18.0201 10.7777C18.1497 10.7932 18.281 10.7828 18.4066 10.7472C18.5321 10.7116 18.6494 10.6515 18.7516 10.5703C18.8538 10.4892 18.9389 10.3886 19.002 10.2744C19.0651 10.1602 19.105 10.0346 19.1193 9.90486C19.1336 9.77516 19.1221 9.6439 19.0854 9.51866C19.0488 9.39343 18.9877 9.27669 18.9056 9.1752C18.8236 9.07371 18.7223 8.98946 18.6076 8.92732C18.2603 8.73536 17.9433 8.49316 17.6669 8.20857L19.1942 7.32631C19.3111 7.26385 19.4141 7.17853 19.4973 7.07544C19.5805 6.97235 19.6422 6.85358 19.6785 6.7262C19.7149 6.59881 19.7253 6.46542 19.7091 6.33393C19.6929 6.20245 19.6505 6.07556 19.5843 5.96082C19.518 5.84608 19.4294 5.74582 19.3237 5.666C19.218 5.58618 19.0973 5.52844 18.9688 5.4962C18.8403 5.46396 18.7066 5.45788 18.5757 5.47833C18.4448 5.49878 18.3194 5.54534 18.2069 5.61523L16.6795 6.49705C16.5707 6.11519 16.5189 5.71934 16.5259 5.32234C16.5287 5.19233 16.5059 5.06303 16.4587 4.94186C16.4115 4.82068 16.3408 4.71002 16.2508 4.6162C16.1607 4.52239 16.053 4.44727 15.9339 4.39515C15.8147 4.34304 15.6865 4.31495 15.5565 4.3125H15.538C15.2791 4.31245 15.0305 4.41405 14.8457 4.59542C14.6608 4.77679 14.5546 5.02346 14.5498 5.28236C14.5358 6.03969 14.6654 6.79281 14.9316 7.50195L10.9744 9.78803V5.21902C11.7221 5.09545 12.4396 4.83129 13.0889 4.44053C13.3134 4.30524 13.475 4.08631 13.5381 3.83189C13.6012 3.57747 13.5606 3.30841 13.4254 3.08389C13.2901 2.85937 13.0711 2.69778 12.8167 2.63468C12.5623 2.57159 12.2932 2.61214 12.0687 2.74742C11.7284 2.95196 11.3596 3.105 10.9744 3.20158V1.70703C10.9744 1.44492 10.8703 1.19355 10.685 1.00821C10.4996 0.822872 10.2483 0.71875 9.98615 0.71875C9.72404 0.71875 9.47266 0.822872 9.28733 1.00821C9.10199 1.19355 8.99786 1.44492 8.99786 1.70703V3.20158C8.61269 3.105 8.24393 2.95196 7.90357 2.74742C7.67905 2.61214 7.40998 2.57159 7.15556 2.63468C6.90114 2.69778 6.68221 2.85937 6.54693 3.08389C6.41164 3.30841 6.37109 3.57747 6.43419 3.83189C6.49729 4.08631 6.65887 4.30524 6.88339 4.44053C7.5327 4.83129 8.25018 5.09545 8.99786 5.21902V9.78803L5.0407 7.50195C5.30732 6.79259 5.43719 6.03915 5.42343 5.28147C5.41861 5.02256 5.31236 4.77589 5.12754 4.59452C4.94272 4.41315 4.6941 4.31156 4.43515 4.3116H4.41583C4.28604 4.314 4.158 4.34194 4.03901 4.39383C3.92002 4.44573 3.81242 4.52055 3.72236 4.61404C3.63229 4.70752 3.56153 4.81783 3.5141 4.93867C3.46668 5.05951 3.44353 5.18851 3.44597 5.3183C3.45324 5.71588 3.40162 6.11234 3.29279 6.4948L1.76544 5.61523C1.65297 5.54814 1.52828 5.50408 1.39863 5.48559C1.26898 5.46711 1.13695 5.47458 1.01021 5.50757C0.883466 5.54056 0.764546 5.59841 0.660359 5.67776C0.556172 5.75711 0.468796 5.85638 0.403307 5.96979C0.337819 6.08321 0.295526 6.2085 0.278885 6.33841C0.262244 6.46831 0.271588 6.60022 0.306373 6.72648C0.341158 6.85274 0.400692 6.97083 0.481512 7.07388C0.562333 7.17693 0.66283 7.26289 0.777162 7.32676L2.30451 8.20902C2.02805 8.49361 1.71107 8.73581 1.36384 8.92777C1.24909 8.98991 1.14778 9.07415 1.06576 9.17565C0.983737 9.27714 0.922628 9.39388 0.885957 9.51911C0.849287 9.64435 0.837782 9.77561 0.852106 9.90531C0.86643 10.035 0.906299 10.1606 0.969413 10.2748C1.03253 10.389 1.11764 10.4896 1.21983 10.5708C1.32202 10.6519 1.43927 10.712 1.56482 10.7476C1.69036 10.7832 1.82171 10.7936 1.95129 10.7782C2.08087 10.7627 2.20611 10.7218 2.31978 10.6577C2.9829 10.2907 3.5705 9.80142 4.05152 9.21572L8.00958 11.5L4.05242 13.7847C3.5714 13.199 2.9838 12.7097 2.32068 12.3427C2.20701 12.2786 2.08177 12.2377 1.95219 12.2223C1.82261 12.2068 1.69126 12.2172 1.56571 12.2528C1.44017 12.2884 1.32292 12.3485 1.22073 12.4297C1.11853 12.5108 1.03343 12.6114 0.970311 12.7256C0.907197 12.8398 0.867328 12.9654 0.853004 13.0951C0.83868 13.2248 0.850186 13.3561 0.886856 13.4813C0.923526 13.6066 0.984635 13.7233 1.06666 13.8248C1.14868 13.9263 1.24999 14.0105 1.36474 14.0727C1.71197 14.2646 2.02894 14.5068 2.3054 14.7914L0.777162 15.6777C0.66283 15.7416 0.562333 15.8276 0.481512 15.9306C0.400692 16.0337 0.341158 16.1518 0.306373 16.278C0.271588 16.4043 0.262244 16.5362 0.278885 16.6661C0.295526 16.796 0.337819 16.9213 0.403307 17.0347C0.468796 17.1481 0.556172 17.2474 0.660359 17.3267C0.764546 17.4061 0.883466 17.4639 1.01021 17.4969C1.13695 17.5299 1.26898 17.5374 1.39863 17.5189C1.52828 17.5004 1.65297 17.4564 1.76544 17.3893L3.29279 16.5074C3.4016 16.8893 3.45337 17.2851 3.44642 17.6821C3.44185 17.944 3.54137 18.1969 3.72313 18.3854C3.90489 18.5739 4.15403 18.6825 4.41583 18.6875H4.43425C4.6932 18.6875 4.94182 18.586 5.12664 18.4046C5.31146 18.2232 5.41771 17.9765 5.42253 17.7176C5.43646 16.9603 5.3069 16.2072 5.0407 15.498L8.99786 13.212V17.781C8.25018 17.9045 7.5327 18.1687 6.88339 18.5595C6.65887 18.6948 6.49729 18.9137 6.43419 19.1681C6.37109 19.4225 6.41164 19.6916 6.54693 19.9161C6.68221 20.1406 6.90114 20.3022 7.15556 20.3653C7.40998 20.4284 7.67905 20.3879 7.90357 20.2526C8.24393 20.048 8.61269 19.895 8.99786 19.7984V21.293C8.99786 21.5551 9.10199 21.8064 9.28733 21.9918C9.47266 22.1771 9.72404 22.2812 9.98615 22.2812C10.2483 22.2812 10.4996 22.1771 10.685 21.9918C10.8703 21.8064 10.9744 21.5551 10.9744 21.293V19.7984C11.3596 19.895 11.7284 20.048 12.0687 20.2526C12.2932 20.3879 12.5623 20.4284 12.8167 20.3653C13.0711 20.3022 13.2901 20.1406 13.4254 19.9161C13.5606 19.6916 13.6012 19.4225 13.5381 19.1681C13.475 18.9137 13.3134 18.6948 13.0889 18.5595C12.4396 18.1687 11.7221 17.9045 10.9744 17.781V13.212L14.9316 15.498C14.665 16.2074 14.5351 16.9608 14.5489 17.7185C14.5537 17.9774 14.6599 18.2241 14.8448 18.4055C15.0296 18.5869 15.2782 18.6884 15.5371 18.6884H15.5565C15.6862 18.686 15.8143 18.6581 15.9333 18.6062C16.0523 18.5543 16.1599 18.4794 16.2499 18.386C16.34 18.2925 16.4108 18.1822 16.4582 18.0613C16.5056 17.9405 16.5288 17.8115 16.5263 17.6817C16.5191 17.2841 16.5707 16.8877 16.6795 16.5052L18.2069 17.387C18.3193 17.4592 18.4453 17.5079 18.5771 17.53C18.7089 17.5522 18.8438 17.5474 18.9737 17.5159C19.1036 17.4844 19.2258 17.4268 19.3328 17.3468C19.4398 17.2667 19.5295 17.1658 19.5964 17.0501C19.6633 16.9344 19.706 16.8063 19.722 16.6736C19.738 16.5409 19.7269 16.4063 19.6894 16.2781C19.6519 16.1498 19.5887 16.0304 19.5038 15.9272C19.4188 15.8241 19.3138 15.7392 19.1951 15.6777Z" fill="#60A8FF"/>
</svg>
