<svg width="14" height="21" viewBox="0 0 14 21" fill="none" xmlns="http://www.w3.org/2000/svg">
<path fill-rule="evenodd" clip-rule="evenodd" d="M1.4857 1.19018C1.56244 1.00624 1.67524 0.847102 1.81339 0.727852C1.95155 0.608602 2.11048 0.533192 2.27513 0.508771C2.43977 0.48435 2.60467 0.511728 2.75419 0.588308C2.90371 0.664889 3.0329 0.788134 3.1295 0.94636L12.7971 16.8215C12.979 17.1205 13.053 17.5019 13.0029 17.882C12.9529 18.262 12.7829 18.6097 12.5303 18.8485L11.258 20.0501C11.0052 20.2886 10.6905 20.3987 10.3831 20.3562C10.0757 20.3137 9.8008 20.122 9.61867 19.8234L6.64245 14.9373L4.9089 16.5745C4.79846 16.6787 4.67266 16.7546 4.53954 16.7973C4.40642 16.84 4.2689 16.8486 4.13573 16.8225C4.00257 16.7963 3.87669 16.7361 3.76612 16.6456C3.65556 16.5552 3.56273 16.4364 3.49356 16.2969L1.7228 12.7264C0.88487 11.0364 0.423294 9.0898 0.381801 7.07098C0.340307 5.05216 0.720271 3.02797 1.4857 1.19018Z" fill="#F78888"/>
</svg>
