<svg width="316" height="153" viewBox="0 0 316 153" fill="none" xmlns="http://www.w3.org/2000/svg">
<path d="M0.625 122L19.8125 31.8125H55.875C61.875 31.8125 66.9792 32.9167 71.1875 35.125C75.3958 37.2917 78.5833 40.2917 80.75 44.125C82.9583 47.9583 84.0625 52.375 84.0625 57.375C84.0625 61.7917 83.1667 66 81.375 70C79.625 74 77.0417 77.5208 73.625 80.5625C70.25 83.5625 66.1458 85.7917 61.3125 87.25L72.625 122H52.875L42.6875 89.3125H43.0625H26.6875L19.6875 122H0.625ZM35.6875 47.0625L29.625 74.8125H46.375C50.0833 74.8125 53.3125 74.1458 56.0625 72.8125C58.8542 71.4792 61.0208 69.625 62.5625 67.25C64.1042 64.875 64.875 62.1458 64.875 59.0625C64.875 55.2292 63.6875 52.2708 61.3125 50.1875C58.9792 48.1042 55.7292 47.0625 51.5625 47.0625H35.6875ZM104.188 81.1875H133.312C133.354 80.9375 133.375 80.6458 133.375 80.3125C133.417 79.9375 133.438 79.6042 133.438 79.3125C133.438 77.1042 132.958 75.0833 132 73.25C131.042 71.375 129.625 69.875 127.75 68.75C125.917 67.5833 123.583 67 120.75 67C118 67 115.5 67.625 113.25 68.875C111.042 70.0833 109.146 71.75 107.562 73.875C106.021 76 104.896 78.4375 104.188 81.1875ZM115.375 123.5C109.167 123.5 103.833 122.25 99.375 119.75C94.9583 117.25 91.5625 113.75 89.1875 109.25C86.8542 104.708 85.6875 99.375 85.6875 93.25C85.6875 87.5833 86.5417 82.3333 88.25 77.5C89.9583 72.6667 92.3958 68.4375 95.5625 64.8125C98.7292 61.1875 102.5 58.375 106.875 56.375C111.25 54.3333 116.083 53.3125 121.375 53.3125C127.167 53.3125 132.208 54.5 136.5 56.875C140.833 59.2083 144.188 62.5208 146.562 66.8125C148.979 71.1042 150.188 76.1875 150.188 82.0625C150.188 83.6875 150.104 85.4375 149.938 87.3125C149.812 89.1875 149.583 90.9167 149.25 92.5H102.375C102.333 92.875 102.292 93.25 102.25 93.625C102.25 93.9583 102.25 94.2917 102.25 94.625C102.25 97.5833 102.812 100.188 103.938 102.438C105.062 104.688 106.646 106.458 108.688 107.75C110.771 109 113.229 109.625 116.062 109.625C119.604 109.625 122.625 108.812 125.125 107.188C127.625 105.521 129.396 103.333 130.438 100.625H147.25C146.125 105.083 144.062 109.042 141.062 112.5C138.104 115.917 134.438 118.604 130.062 120.562C125.688 122.521 120.792 123.5 115.375 123.5ZM161.5 74.8125C161.5 70.5625 162.646 66.8333 164.938 63.625C167.271 60.375 170.521 57.8542 174.688 56.0625C178.854 54.2708 183.729 53.375 189.312 53.375C194.646 53.375 199.354 54.2917 203.438 56.125C207.521 57.9583 210.729 60.5208 213.062 63.8125C215.438 67.0625 216.688 70.8125 216.812 75.0625H200.562C200.438 73.3542 199.854 71.8333 198.812 70.5C197.812 69.1667 196.479 68.1458 194.812 67.4375C193.146 66.6875 191.229 66.3125 189.062 66.3125C186.896 66.3125 185.021 66.6042 183.438 67.1875C181.896 67.7708 180.688 68.5833 179.812 69.625C178.979 70.625 178.562 71.8125 178.562 73.1875C178.562 74.9375 179.25 76.3542 180.625 77.4375C182 78.5208 184.521 79.6458 188.188 80.8125L194.875 83.0625C201.125 85.1042 205.583 87.5417 208.25 90.375C210.917 93.1667 212.25 96.7917 212.25 101.25C212.25 105.625 211.021 109.5 208.562 112.875C206.146 116.208 202.771 118.812 198.438 120.688C194.104 122.562 189.062 123.5 183.312 123.5C177.438 123.5 172.292 122.562 167.875 120.688C163.458 118.812 160 116.188 157.5 112.812C155.042 109.438 153.729 105.542 153.562 101.125H170.688C171.021 103.875 172.333 106.125 174.625 107.875C176.958 109.625 180.042 110.5 183.875 110.5C186 110.5 187.854 110.188 189.438 109.562C191.062 108.938 192.312 108.062 193.188 106.938C194.062 105.812 194.5 104.542 194.5 103.125C194.5 101.542 193.854 100.25 192.562 99.25C191.271 98.25 188.833 97.1875 185.25 96.0625L179.312 94.0625C173.146 92.0208 168.625 89.4583 165.75 86.375C162.917 83.2917 161.5 79.4375 161.5 74.8125ZM299.562 130.812H282.188L277.875 121.812C275.875 122.354 273.833 122.771 271.75 123.062C269.667 123.354 267.542 123.5 265.375 123.5C257.292 123.5 250.312 121.854 244.438 118.562C238.562 115.229 234.021 110.646 230.812 104.812C227.646 98.9792 226.062 92.2708 226.062 84.6875C226.062 76.8542 227.271 69.625 229.688 63C232.146 56.375 235.562 50.625 239.938 45.75C244.354 40.8333 249.5 37.0417 255.375 34.375C261.25 31.6667 267.625 30.3125 274.5 30.3125C282.667 30.3125 289.688 31.9792 295.562 35.3125C301.479 38.6042 306.021 43.1667 309.188 49C312.354 54.8333 313.938 61.5417 313.938 69.125C313.938 75.5417 313.062 81.6042 311.312 87.3125C309.562 92.9792 307.062 98.1458 303.812 102.812C300.562 107.438 296.667 111.417 292.125 114.75L299.562 130.812ZM265.75 107.25C266.708 107.25 267.646 107.188 268.562 107.062C269.521 106.938 270.521 106.771 271.562 106.562L264.812 92.125H281C281.5 92.9583 282 93.8125 282.5 94.6875C283 95.5208 283.5 96.375 284 97.25C286.208 95.1667 288.104 92.7292 289.688 89.9375C291.312 87.1042 292.542 84.0208 293.375 80.6875C294.25 77.3125 294.688 73.7917 294.688 70.125C294.688 65.3333 293.833 61.1875 292.125 57.6875C290.458 54.1458 288.083 51.4167 285 49.5C281.958 47.5417 278.354 46.5625 274.188 46.5625C270.021 46.5625 266.188 47.5208 262.688 49.4375C259.188 51.3542 256.125 54.0208 253.5 57.4375C250.917 60.8542 248.896 64.7917 247.438 69.25C245.979 73.7083 245.25 78.5 245.25 83.625C245.25 88.4167 246.083 92.5833 247.75 96.125C249.458 99.6667 251.854 102.417 254.938 104.375C258.021 106.292 261.625 107.25 265.75 107.25Z" fill="white"/>
<path d="M208.702 41.2557H205.65V32.0546C205.65 28.7174 202.948 26 199.594 26H184.683C181.344 26 178.626 28.7015 178.626 32.0546V41.2557H175.574C174.699 41.2557 174 41.9549 174 42.829V46.2615C174 47.1355 174.699 47.8347 175.574 47.8347H208.686C209.561 47.8347 210.26 47.1355 210.26 46.2615V42.829C210.26 41.9549 209.561 41.2557 208.686 41.2557H208.702ZM189.134 38.0457L184.285 40.4452C184.015 40.5724 183.681 40.4135 183.681 40.1433V33.6437C183.681 33.3736 184.015 33.2147 184.285 33.3418L189.134 35.7414C188.959 36.091 188.847 36.4883 188.847 36.8856C188.847 37.2829 188.943 37.6801 189.134 38.0298V38.0457ZM192.138 38.9832C190.819 38.9832 189.754 38.0457 189.754 36.9015C189.754 35.7573 190.819 34.8197 192.138 34.8197C193.457 34.8197 194.523 35.7573 194.523 36.9015C194.523 38.0457 193.457 38.9832 192.138 38.9832ZM200.595 40.1592C200.595 40.4294 200.261 40.5883 199.991 40.4611L195.142 38.0615C195.317 37.7119 195.429 37.3146 195.429 36.9174C195.429 36.5201 195.333 36.1228 195.142 35.7732L199.991 33.3736C200.261 33.2465 200.595 33.4054 200.595 33.6755V40.1751V40.1592Z" fill="#FF0000"/>
</svg>
