<svg width="58" height="58" viewBox="0 0 58 58" fill="none" xmlns="http://www.w3.org/2000/svg">
<path d="M29 33.8335C26.9861 33.8335 25.2743 33.1286 23.8646 31.7189C22.4549 30.3092 21.75 28.5974 21.75 26.5835V12.0835C21.75 10.0696 22.4549 8.3578 23.8646 6.94808C25.2743 5.53836 26.9861 4.8335 29 4.8335C31.0139 4.8335 32.7257 5.53836 34.1354 6.94808C35.5451 8.3578 36.25 10.0696 36.25 12.0835V26.5835C36.25 28.5974 35.5451 30.3092 34.1354 31.7189C32.7257 33.1286 31.0139 33.8335 29 33.8335ZM26.5833 50.7502V43.3189C22.3945 42.755 18.9306 40.8821 16.1917 37.7002C13.4528 34.5182 12.0833 30.8127 12.0833 26.5835H16.9167C16.9167 29.9266 18.0952 32.7766 20.4523 35.1337C22.8093 37.4907 25.6586 38.6684 29 38.6668C32.3415 38.6652 35.1915 37.4867 37.5502 35.1312C39.9088 32.7758 41.0866 29.9266 41.0833 26.5835H45.9167C45.9167 30.8127 44.5472 34.5182 41.8083 37.7002C39.0695 40.8821 35.6056 42.755 31.4167 43.3189V50.7502H26.5833Z" fill="#2459E0"/>
</svg>
