<svg width="29" height="29" viewBox="0 0 29 29" fill="none" xmlns="http://www.w3.org/2000/svg">
<path d="M14 14C12.4875 14 11.1927 13.4615 10.1156 12.3844C9.03854 11.3073 8.5 10.0125 8.5 8.5C8.5 6.9875 9.03854 5.69271 10.1156 4.61563C11.1927 3.53854 12.4875 3 14 3C15.5125 3 16.8073 3.53854 17.8844 4.61563C18.9615 5.69271 19.5 6.9875 19.5 8.5C19.5 10.0125 18.9615 11.3073 17.8844 12.3844C16.8073 13.4615 15.5125 14 14 14ZM3 22.25V21.15C3 20.3708 3.20075 19.6549 3.60225 19.0022C4.00375 18.3496 4.53633 17.8509 5.2 17.5062C6.62083 16.7958 8.06458 16.2632 9.53125 15.9085C10.9979 15.5537 12.4875 15.3759 14 15.375C15.5125 15.3741 17.0021 15.5519 18.4687 15.9085C19.9354 16.2651 21.3792 16.7977 22.8 17.5062C23.4646 17.85 23.9976 18.3487 24.3991 19.0022C24.8006 19.6558 25.0009 20.3717 25 21.15V22.25C25 23.0062 24.731 23.6539 24.1929 24.1929C23.6548 24.7319 23.0072 25.0009 22.25 25H5.75C4.99375 25 4.34658 24.731 3.8085 24.1929C3.27042 23.6548 3.00092 23.0072 3 22.25Z" fill="#374957"/>
</svg>
