<svg width="91" height="39" viewBox="0 0 91 39" fill="none" xmlns="http://www.w3.org/2000/svg">
<path d="M6.15625 30L10.9531 7.45312H19.9688C21.4688 7.45312 22.7448 7.72917 23.7969 8.28125C24.849 8.82292 25.6458 9.57292 26.1875 10.5312C26.7396 11.4896 27.0156 12.5938 27.0156 13.8438C27.0156 14.9479 26.7917 16 26.3438 17C25.9062 18 25.2604 18.8802 24.4062 19.6406C23.5625 20.3906 22.5365 20.9479 21.3281 21.3125L24.1562 30H19.2188L16.6719 21.8281H16.7656H12.6719L10.9219 30H6.15625ZM14.9219 11.2656L13.4062 18.2031H17.5938C18.5208 18.2031 19.3281 18.0365 20.0156 17.7031C20.7135 17.3698 21.2552 16.9062 21.6406 16.3125C22.026 15.7188 22.2188 15.0365 22.2188 14.2656C22.2188 13.3073 21.9219 12.5677 21.3281 12.0469C20.7448 11.526 19.9323 11.2656 18.8906 11.2656H14.9219ZM32.0469 19.7969H39.3281C39.3385 19.7344 39.3438 19.6615 39.3438 19.5781C39.3542 19.4844 39.3594 19.401 39.3594 19.3281C39.3594 18.776 39.2396 18.2708 39 17.8125C38.7604 17.3438 38.4062 16.9688 37.9375 16.6875C37.4792 16.3958 36.8958 16.25 36.1875 16.25C35.5 16.25 34.875 16.4062 34.3125 16.7188C33.7604 17.0208 33.2865 17.4375 32.8906 17.9688C32.5052 18.5 32.224 19.1094 32.0469 19.7969ZM34.8438 30.375C33.2917 30.375 31.9583 30.0625 30.8438 29.4375C29.7396 28.8125 28.8906 27.9375 28.2969 26.8125C27.7135 25.6771 27.4219 24.3438 27.4219 22.8125C27.4219 21.3958 27.6354 20.0833 28.0625 18.875C28.4896 17.6667 29.099 16.6094 29.8906 15.7031C30.6823 14.7969 31.625 14.0938 32.7188 13.5938C33.8125 13.0833 35.0208 12.8281 36.3438 12.8281C37.7917 12.8281 39.0521 13.125 40.125 13.7188C41.2083 14.3021 42.0469 15.1302 42.6406 16.2031C43.2448 17.276 43.5469 18.5469 43.5469 20.0156C43.5469 20.4219 43.526 20.8594 43.4844 21.3281C43.4531 21.7969 43.3958 22.2292 43.3125 22.625H31.5938C31.5833 22.7188 31.5729 22.8125 31.5625 22.9062C31.5625 22.9896 31.5625 23.0729 31.5625 23.1562C31.5625 23.8958 31.7031 24.5469 31.9844 25.1094C32.2656 25.6719 32.6615 26.1146 33.1719 26.4375C33.6927 26.75 34.3073 26.9062 35.0156 26.9062C35.901 26.9062 36.6562 26.7031 37.2812 26.2969C37.9062 25.8802 38.349 25.3333 38.6094 24.6562H42.8125C42.5312 25.7708 42.0156 26.7604 41.2656 27.625C40.526 28.4792 39.6094 29.151 38.5156 29.6406C37.4219 30.1302 36.1979 30.375 34.8438 30.375ZM46.375 18.2031C46.375 17.1406 46.6615 16.2083 47.2344 15.4062C47.8177 14.5938 48.6302 13.9635 49.6719 13.5156C50.7135 13.0677 51.9323 12.8438 53.3281 12.8438C54.6615 12.8438 55.8385 13.0729 56.8594 13.5312C57.8802 13.9896 58.6823 14.6302 59.2656 15.4531C59.8594 16.2656 60.1719 17.2031 60.2031 18.2656H56.1406C56.1094 17.8385 55.9635 17.4583 55.7031 17.125C55.4531 16.7917 55.1198 16.5365 54.7031 16.3594C54.2865 16.1719 53.8073 16.0781 53.2656 16.0781C52.724 16.0781 52.2552 16.151 51.8594 16.2969C51.474 16.4427 51.1719 16.6458 50.9531 16.9062C50.7448 17.1562 50.6406 17.4531 50.6406 17.7969C50.6406 18.2344 50.8125 18.5885 51.1562 18.8594C51.5 19.1302 52.1302 19.4115 53.0469 19.7031L54.7188 20.2656C56.2812 20.776 57.3958 21.3854 58.0625 22.0938C58.7292 22.7917 59.0625 23.6979 59.0625 24.8125C59.0625 25.9062 58.7552 26.875 58.1406 27.7188C57.5365 28.5521 56.6927 29.2031 55.6094 29.6719C54.526 30.1406 53.2656 30.375 51.8281 30.375C50.3594 30.375 49.0729 30.1406 47.9688 29.6719C46.8646 29.2031 46 28.5469 45.375 27.7031C44.7604 26.8594 44.4323 25.8854 44.3906 24.7812H48.6719C48.7552 25.4688 49.0833 26.0312 49.6562 26.4688C50.2396 26.9062 51.0104 27.125 51.9688 27.125C52.5 27.125 52.9635 27.0469 53.3594 26.8906C53.7656 26.7344 54.0781 26.5156 54.2969 26.2344C54.5156 25.9531 54.625 25.6354 54.625 25.2812C54.625 24.8854 54.4635 24.5625 54.1406 24.3125C53.8177 24.0625 53.2083 23.7969 52.3125 23.5156L50.8281 23.0156C49.2865 22.5052 48.1562 21.8646 47.4375 21.0938C46.7292 20.3229 46.375 19.3594 46.375 18.2031ZM80.8906 32.2031H76.5469L75.4688 29.9531C74.9688 30.0885 74.4583 30.1927 73.9375 30.2656C73.4167 30.3385 72.8854 30.375 72.3438 30.375C70.3229 30.375 68.5781 29.9635 67.1094 29.1406C65.6406 28.3073 64.5052 27.1615 63.7031 25.7031C62.9115 24.2448 62.5156 22.5677 62.5156 20.6719C62.5156 18.7135 62.8177 16.9062 63.4219 15.25C64.0365 13.5938 64.8906 12.1562 65.9844 10.9375C67.0885 9.70833 68.375 8.76042 69.8438 8.09375C71.3125 7.41667 72.9062 7.07812 74.625 7.07812C76.6667 7.07812 78.4219 7.49479 79.8906 8.32812C81.3698 9.15104 82.5052 10.2917 83.2969 11.75C84.0885 13.2083 84.4844 14.8854 84.4844 16.7812C84.4844 18.3854 84.2656 19.901 83.8281 21.3281C83.3906 22.7448 82.7656 24.0365 81.9531 25.2031C81.1406 26.3594 80.1667 27.3542 79.0312 28.1875L80.8906 32.2031ZM72.4375 26.3125C72.6771 26.3125 72.9115 26.2969 73.1406 26.2656C73.3802 26.2344 73.6302 26.1927 73.8906 26.1406L72.2031 22.5312H76.25C76.375 22.7396 76.5 22.9531 76.625 23.1719C76.75 23.3802 76.875 23.5938 77 23.8125C77.5521 23.2917 78.026 22.6823 78.4219 21.9844C78.8281 21.276 79.1354 20.5052 79.3438 19.6719C79.5625 18.8281 79.6719 17.9479 79.6719 17.0312C79.6719 15.8333 79.4583 14.7969 79.0312 13.9219C78.6146 13.0365 78.0208 12.3542 77.25 11.875C76.4896 11.3854 75.5885 11.1406 74.5469 11.1406C73.5052 11.1406 72.5469 11.3802 71.6719 11.8594C70.7969 12.3385 70.0312 13.0052 69.375 13.8594C68.7292 14.7135 68.224 15.6979 67.8594 16.8125C67.4948 17.9271 67.3125 19.125 67.3125 20.4062C67.3125 21.6042 67.5208 22.6458 67.9375 23.5312C68.3646 24.4167 68.9635 25.1042 69.7344 25.5938C70.5052 26.0729 71.4062 26.3125 72.4375 26.3125Z" fill="#2459E0"/>
<path d="M21.4844 6.34955H20.4744V3.72623C20.4744 2.77476 19.58 2 18.47 2H13.5353C12.4305 2 11.5309 2.77023 11.5309 3.72623V6.34955H10.5208C10.2315 6.34955 10 6.54891 10 6.7981V7.77675C10 8.02594 10.2315 8.2253 10.5208 8.2253H21.4792C21.7685 8.2253 22 8.02594 22 7.77675V6.7981C22 6.54891 21.7685 6.34955 21.4792 6.34955H21.4844ZM15.0083 5.43433L13.4038 6.11848C13.3143 6.15473 13.2039 6.10942 13.2039 6.0324V4.17931C13.2039 4.10228 13.3143 4.05698 13.4038 4.09322L15.0083 4.77737C14.9505 4.87705 14.9136 4.99032 14.9136 5.10359C14.9136 5.21686 14.9452 5.33013 15.0083 5.4298V5.43433ZM16.0026 5.70165C15.566 5.70165 15.2135 5.43433 15.2135 5.10812C15.2135 4.7819 15.566 4.51459 16.0026 4.51459C16.4393 4.51459 16.7918 4.7819 16.7918 5.10812C16.7918 5.43433 16.4393 5.70165 16.0026 5.70165ZM18.8014 6.03693C18.8014 6.11395 18.6909 6.15926 18.6015 6.12301L16.9969 5.43886C17.0548 5.33919 17.0916 5.22592 17.0916 5.11265C17.0916 4.99938 17.0601 4.88611 16.9969 4.78643L18.6015 4.10228C18.6909 4.06604 18.8014 4.11135 18.8014 4.18837V6.04146V6.03693Z" fill="#FF2A00"/>
</svg>
