<svg width="14" height="19" viewBox="0 0 14 19" fill="none" xmlns="http://www.w3.org/2000/svg">
<path fill-rule="evenodd" clip-rule="evenodd" d="M1.49721 1.10319C1.57124 0.939816 1.68161 0.79915 1.81784 0.694526C1.95407 0.589902 2.11165 0.524787 2.27564 0.505355C2.43963 0.485924 2.60459 0.512818 2.75489 0.58349C2.90519 0.654161 3.03584 0.766268 3.13446 0.90918L13.0044 15.2476C13.19 15.5176 13.2692 15.8598 13.2246 16.1989C13.1799 16.5381 13.0151 16.8465 12.7663 17.0564L11.5132 18.1124C11.2641 18.322 10.9516 18.4158 10.6442 18.3733C10.3368 18.3308 10.0598 18.1554 9.87383 17.8856L6.83534 13.4725L5.12791 14.9113C5.01913 15.0029 4.89464 15.0689 4.76237 15.1052C4.6301 15.1414 4.49295 15.1471 4.35968 15.1218C4.22641 15.0965 4.09994 15.0408 3.98832 14.9582C3.87671 14.8757 3.78241 14.7681 3.71143 14.6424L1.8944 11.4234C1.03456 9.89979 0.546784 8.15222 0.477276 6.3462C0.407768 4.54018 0.758832 2.73552 1.49721 1.10319Z" fill="#F78888"/>
</svg>
