<svg width="16" height="17" viewBox="0 0 16 17" fill="none" xmlns="http://www.w3.org/2000/svg">
<path d="M8.02 16.5C6.23333 14.5978 4.81013 13.0619 3.7504 11.8923C2.69067 10.7228 1.884 9.75055 1.3304 8.97556C0.7768 8.20057 0.4168 7.53831 0.2504 6.98877C0.084 6.43923 0.000533333 5.82629 0 5.14993C0 3.85359 0.426667 2.75451 1.28 1.85271C2.13333 0.950903 3.17333 0.5 4.4 0.5C5 0.5 5.58 0.616107 6.14 0.848322C6.7 1.08054 7.2 1.41533 7.64 1.85271L6.4 6.4181H8.8L8.12 13.4987L10.4 5.57266H8L9.42 1.09181C9.75333 0.89454 10.1035 0.746587 10.4704 0.647952C10.8373 0.549317 11.2139 0.5 11.6 0.5C12.8267 0.5 13.8667 0.950903 14.72 1.85271C15.5733 2.75451 16 3.85359 16 5.14993C16 5.82629 15.9133 6.44628 15.74 7.00991C15.5667 7.57354 15.2 8.24651 14.64 9.02882C14.08 9.81114 13.2733 10.7834 12.22 11.9456C11.1667 13.1078 9.76667 14.6259 8.02 16.5Z" fill="#8BD9CC"/>
</svg>
