<svg width="1043" height="1129" viewBox="0 0 1043 1129" fill="none" xmlns="http://www.w3.org/2000/svg">
<path d="M990.068 791.228H921.286L957.92 574.566C971.211 495.982 920.832 432 844.894 432H347.689C320.767 432 298.956 457.286 298.956 488.481C298.956 519.676 320.767 544.962 347.689 544.962H354.675C378.132 548.258 395.967 564.509 395.967 584.112C395.967 606.103 373.588 623.945 346.042 623.945H239.603C212.965 623.945 191.382 646.56 191.382 674.403C191.382 702.245 212.965 724.86 239.603 724.86H285.779C300.206 724.86 311.906 738.895 311.906 756.226C311.906 773.557 300.206 787.592 285.779 787.592H134.585C101.245 787.592 74.209 812.878 74.209 844.073C74.209 875.268 101.245 900.554 134.585 900.554H186.1L184.623 909.134C181.159 929.704 194.222 946.182 213.988 946.182H963.827C983.65 946.182 1002.28 929.704 1005.74 909.134L1019.43 828.276C1022.9 807.707 1009.83 791.228 990.068 791.228ZM560.111 715.258V715.655L440.723 772.136C434.078 775.148 427.148 771.398 428.227 765.034L454.127 611.955C455.206 605.591 463.385 601.841 469.008 604.852L569.256 661.333C563.917 669.573 559.827 678.948 558.237 688.267C556.647 697.643 557.214 706.961 560.168 715.201L560.111 715.258ZM686.656 688.722C682.112 715.655 654.225 737.759 624.349 737.759C594.474 737.759 574.083 715.655 578.627 688.722C583.171 661.788 611.058 639.684 640.934 639.684C670.809 639.684 691.2 661.788 686.656 688.722ZM836.999 612.751L811.156 765.431C810.077 771.795 801.898 775.546 796.275 772.534L696.027 716.053C701.366 707.814 705.456 698.438 707.046 689.119C708.636 679.744 708.068 670.425 705.115 662.186L824.446 605.705C831.092 602.693 838.021 606.443 836.942 612.807L836.999 612.751Z" fill="#FF0000"/>
<path d="M160.655 673.209C160.655 646.446 141.457 624.74 117.773 624.74H66.8821C43.1975 624.74 24 646.446 24 673.209C24 699.973 43.1975 721.679 66.8821 721.679H117.773C141.457 721.679 160.655 699.973 160.655 673.209Z" fill="#FF0000"/>
<path d="M199.561 533.541H210.466C237.104 533.541 258.687 511.039 258.687 483.253C258.687 455.467 237.047 433.023 210.409 433.023H199.504C172.866 433.023 151.283 455.524 151.283 483.31C151.283 511.096 172.866 533.598 199.504 533.598L199.561 533.541Z" fill="#FF0000"/>
</svg>
