<svg width="996" height="683" viewBox="0 0 996 683" fill="none" xmlns="http://www.w3.org/2000/svg">
<path d="M966.068 359.228H897.286L933.92 142.566C947.211 63.9815 896.832 0 820.894 0H323.689C296.767 0 274.956 25.2858 274.956 56.481C274.956 87.6763 296.767 112.962 323.689 112.962H330.675C354.132 116.258 371.967 132.509 371.967 152.112C371.967 174.103 349.588 191.945 322.042 191.945H215.603C188.965 191.945 167.382 214.56 167.382 242.403C167.382 270.245 188.965 292.86 215.603 292.86H261.779C276.206 292.86 287.906 306.895 287.906 324.226C287.906 341.557 276.206 355.592 261.779 355.592H110.585C77.2446 355.592 50.209 380.878 50.209 412.073C50.209 443.268 77.2446 468.554 110.585 468.554H162.1L160.623 477.134C157.159 497.704 170.222 514.182 189.988 514.182H939.827C959.65 514.182 978.279 497.704 981.744 477.134L995.432 396.276C998.897 375.707 985.833 359.228 966.068 359.228ZM536.111 283.258V283.655L416.723 340.136C410.078 343.148 403.148 339.398 404.227 333.034L430.127 179.955C431.206 173.591 439.385 169.841 445.008 172.852L545.256 229.333C539.917 237.573 535.827 246.948 534.237 256.267C532.647 265.643 533.214 274.961 536.168 283.201L536.111 283.258ZM662.656 256.722C658.112 283.655 630.225 305.759 600.349 305.759C570.474 305.759 550.083 283.655 554.627 256.722C559.171 229.788 587.058 207.684 616.934 207.684C646.809 207.684 667.2 229.788 662.656 256.722ZM812.999 180.751L787.156 333.431C786.077 339.795 777.898 343.546 772.275 340.534L672.027 284.053C677.366 275.814 681.456 266.438 683.046 257.119C684.636 247.744 684.068 238.425 681.115 230.186L800.446 173.705C807.092 170.693 814.021 174.443 812.942 180.807L812.999 180.751Z" fill="#FF0000"/>
<path d="M136.655 241.209C136.655 214.446 117.457 192.74 93.7726 192.74H42.8821C19.1975 192.74 0 214.446 0 241.209C0 267.972 19.1975 289.678 42.8821 289.678H93.7726C117.457 289.678 136.655 267.972 136.655 241.209Z" fill="#FF0000"/>
<path d="M175.561 101.541H186.466C213.104 101.541 234.687 79.0393 234.687 51.2534C234.687 23.4674 213.047 1.02277 186.409 1.02277H175.504C148.866 1.02277 127.283 23.5243 127.283 51.3102C127.283 79.0961 148.866 101.598 175.504 101.598L175.561 101.541Z" fill="#FF0000"/>
</svg>
