<svg width="71" height="81" viewBox="0 0 71 81" fill="none" xmlns="http://www.w3.org/2000/svg">
<path d="M63.3333 77.1667L16.6667 77.1667L16.6667 70.5001L63.3333 70.5001L63.3333 77.1667ZM63.3333 67.1667L16.6667 67.1667L16.6667 60.5001L63.3333 60.5001L63.3333 67.1667ZM63.3333 57.1667L16.6667 57.1667L16.6667 53.8334L63.3333 53.8334L63.3333 57.1667ZM63.3333 47.1667L16.6667 47.1667L16.6667 40.5001L63.3333 40.5001L63.3333 47.1667ZM63.3333 37.1667L16.6667 37.1667L16.6667 27.1667L63.3333 27.1667L63.3333 37.1667ZM63.3333 23.8334L16.6667 23.8334L16.6667 20.5001L63.3333 20.5001L63.3333 23.8334ZM63.3333 13.8334L16.6667 13.8334L16.6667 3.83341L63.3333 3.83341L63.3333 13.8334Z" fill="black"/>
</svg>
